<svg width="113" height="25" viewBox="0 0 113 25" fill="none" xmlns="http://www.w3.org/2000/svg">
<path d="M9.05114 0.727272L3.42614 21.625H0.298295L5.9233 0.727272H9.05114ZM11.8913 22.7926V1.22159H18.6158V3.93182H15.4027V20.0739H18.6158V22.7926H11.8913ZM20.6207 19V5.90909H24.1406V8.19318H24.277C24.5156 7.38068 24.9162 6.76705 25.4787 6.35227C26.0412 5.93182 26.6889 5.72159 27.4219 5.72159C27.6037 5.72159 27.7997 5.73295 28.0099 5.75568C28.2202 5.77841 28.4048 5.80966 28.5639 5.84943V9.07102C28.3935 9.01989 28.1577 8.97443 27.8565 8.93466C27.5554 8.89489 27.2798 8.875 27.0298 8.875C26.4957 8.875 26.0185 8.99148 25.598 9.22443C25.1832 9.4517 24.8537 9.76989 24.6094 10.179C24.3707 10.5881 24.2514 11.0597 24.2514 11.5938V19H20.6207ZM36.2706 1.22159V22.7926H29.5462V20.0739H32.7592V3.93182H29.5462V1.22159H36.2706ZM46.2273 19.2557C44.8807 19.2557 43.7216 18.983 42.75 18.4375C41.7841 17.8864 41.0398 17.108 40.517 16.1023C39.9943 15.0909 39.733 13.8949 39.733 12.5142C39.733 11.1676 39.9943 9.9858 40.517 8.96875C41.0398 7.9517 41.7756 7.15909 42.7244 6.59091C43.679 6.02273 44.7983 5.73864 46.0824 5.73864C46.946 5.73864 47.75 5.87784 48.4943 6.15625C49.2443 6.42898 49.8977 6.84091 50.4545 7.39205C51.017 7.94318 51.4545 8.63636 51.767 9.47159C52.0795 10.3011 52.2358 11.2727 52.2358 12.3864V13.3835H41.1818V11.1335H48.8182C48.8182 10.6108 48.7045 10.1477 48.4773 9.74432C48.25 9.34091 47.9347 9.02557 47.5312 8.7983C47.1335 8.56534 46.6705 8.44886 46.142 8.44886C45.5909 8.44886 45.1023 8.5767 44.6761 8.83239C44.2557 9.08239 43.9261 9.42045 43.6875 9.84659C43.4489 10.267 43.3267 10.7358 43.321 11.2528V13.392C43.321 14.0398 43.4403 14.5994 43.679 15.071C43.9233 15.5426 44.267 15.9062 44.7102 16.1619C45.1534 16.4176 45.679 16.5455 46.2869 16.5455C46.6903 16.5455 47.0597 16.4886 47.3949 16.375C47.7301 16.2614 48.017 16.0909 48.2557 15.8636C48.4943 15.6364 48.6761 15.358 48.8011 15.0284L52.1591 15.25C51.9886 16.0568 51.6392 16.7614 51.1108 17.3636C50.5881 17.9602 49.9119 18.4261 49.0824 18.7614C48.2585 19.0909 47.3068 19.2557 46.2273 19.2557ZM60.5028 24.1818C59.3267 24.1818 58.3182 24.0199 57.4773 23.696C56.642 23.3778 55.9773 22.9432 55.483 22.392C54.9886 21.8409 54.6676 21.2216 54.5199 20.5341L57.8778 20.0824C57.9801 20.3438 58.142 20.5881 58.3636 20.8153C58.5852 21.0426 58.8778 21.2244 59.2415 21.3608C59.6108 21.5028 60.0597 21.5739 60.5881 21.5739C61.3778 21.5739 62.0284 21.3807 62.5398 20.9943C63.0568 20.6136 63.3153 19.9744 63.3153 19.0767V16.6818H63.1619C63.0028 17.0455 62.7642 17.3892 62.446 17.7131C62.1278 18.0369 61.7188 18.3011 61.2188 18.5057C60.7188 18.7102 60.1222 18.8125 59.429 18.8125C58.446 18.8125 57.5511 18.5852 56.7443 18.1307C55.9432 17.6705 55.304 16.9687 54.8267 16.0256C54.3551 15.0767 54.1193 13.8778 54.1193 12.429C54.1193 10.946 54.3608 9.70739 54.8438 8.71307C55.3267 7.71875 55.9688 6.97443 56.7699 6.48011C57.5767 5.9858 58.4602 5.73864 59.4205 5.73864C60.1534 5.73864 60.767 5.86364 61.2614 6.11364C61.7557 6.35795 62.1534 6.66477 62.4545 7.03409C62.7614 7.39773 62.9972 7.75568 63.1619 8.10795H63.2983V5.90909H66.9034V19.1278C66.9034 20.2415 66.6307 21.1733 66.0852 21.9233C65.5398 22.6733 64.7841 23.2358 63.8182 23.6108C62.858 23.9915 61.7528 24.1818 60.5028 24.1818ZM60.5795 16.0852C61.1648 16.0852 61.6591 15.9403 62.0625 15.6506C62.4716 15.3551 62.7841 14.9347 63 14.3892C63.2216 13.8381 63.3324 13.179 63.3324 12.4119C63.3324 11.6449 63.2244 10.9801 63.0085 10.4176C62.7926 9.84943 62.4801 9.40909 62.071 9.09659C61.6619 8.78409 61.1648 8.62784 60.5795 8.62784C59.983 8.62784 59.4801 8.78977 59.071 9.11364C58.6619 9.43182 58.3523 9.875 58.142 10.4432C57.9318 11.0114 57.8267 11.6676 57.8267 12.4119C57.8267 13.1676 57.9318 13.821 58.142 14.3722C58.358 14.9176 58.6676 15.3409 59.071 15.642C59.4801 15.9375 59.983 16.0852 60.5795 16.0852ZM82.907 19.2557C81.5604 19.2557 80.4013 18.983 79.4297 18.4375C78.4638 17.8864 77.7195 17.108 77.1967 16.1023C76.674 15.0909 76.4126 13.8949 76.4126 12.5142C76.4126 11.1676 76.674 9.9858 77.1967 8.96875C77.7195 7.9517 78.4553 7.15909 79.4041 6.59091C80.3587 6.02273 81.478 5.73864 82.7621 5.73864C83.6257 5.73864 84.4297 5.87784 85.174 6.15625C85.924 6.42898 86.5774 6.84091 87.1342 7.39205C87.6967 7.94318 88.1342 8.63636 88.4467 9.47159C88.7592 10.3011 88.9155 11.2727 88.9155 12.3864V13.3835H77.8615V11.1335H85.4979C85.4979 10.6108 85.3842 10.1477 85.157 9.74432C84.9297 9.34091 84.6143 9.02557 84.2109 8.7983C83.8132 8.56534 83.3501 8.44886 82.8217 8.44886C82.2706 8.44886 81.782 8.5767 81.3558 8.83239C80.9354 9.08239 80.6058 9.42045 80.3672 9.84659C80.1286 10.267 80.0064 10.7358 80.0007 11.2528V13.392C80.0007 14.0398 80.12 14.5994 80.3587 15.071C80.603 15.5426 80.9467 15.9062 81.3899 16.1619C81.8331 16.4176 82.3587 16.5455 82.9666 16.5455C83.37 16.5455 83.7393 16.4886 84.0746 16.375C84.4098 16.2614 84.6967 16.0909 84.9354 15.8636C85.174 15.6364 85.3558 15.358 85.4808 15.0284L88.8388 15.25C88.6683 16.0568 88.3189 16.7614 87.7905 17.3636C87.2678 17.9602 86.5916 18.4261 85.7621 18.7614C84.9382 19.0909 83.9865 19.2557 82.907 19.2557ZM94.0845 5.90909L96.4879 10.4858L98.951 5.90909H102.675L98.8828 12.4545L102.778 19H99.0703L96.4879 14.4744L93.9482 19H90.1982L94.0845 12.4545L90.3345 5.90909H94.0845ZM112.434 0.727272L106.809 21.625H103.681L109.306 0.727272H112.434Z" fill="black"/>
<path d="M71.9148 19.2216C71.3523 19.2216 70.8693 19.0227 70.4659 18.625C70.0682 18.2216 69.8693 17.7386 69.8693 17.1761C69.8693 16.6193 70.0682 16.142 70.4659 15.7443C70.8693 15.3466 71.3523 15.1477 71.9148 15.1477C72.4602 15.1477 72.9375 15.3466 73.3466 15.7443C73.7557 16.142 73.9602 16.6193 73.9602 17.1761C73.9602 17.5511 73.8636 17.8949 73.6705 18.2074C73.483 18.5142 73.2358 18.7614 72.929 18.9489C72.6222 19.1307 72.2841 19.2216 71.9148 19.2216Z" fill="#FF0000"/>
</svg>
